<svg width="217" height="32" viewBox="0 0 217 32" fill="none" xmlns="http://www.w3.org/2000/svg">
<path d="M32 4.99676H37.3997L43.1027 19.7368L48.6844 4.99676H54.0234V26.5933H49.9888V10.2826L43.5274 26.5933H42.223L35.6402 10.2826V26.5933H32V4.99676Z" fill="#212121"/>
<path d="M57.9838 10.7961H61.6544V26.5933H57.9838V10.7961ZM61.3207 7.59439C60.896 7.99712 60.3803 8.19849 59.7736 8.19849C59.1669 8.19849 58.6512 7.99712 58.2265 7.59439C57.8018 7.19166 57.5895 6.69831 57.5895 6.11435C57.5895 5.51025 57.8018 5.00683 58.2265 4.6041C58.6512 4.20137 59.1669 4 59.7736 4C60.3803 4 60.896 4.20137 61.3207 4.6041C61.7454 5.00683 61.9578 5.51025 61.9578 6.11435C61.9578 6.69831 61.7454 7.19166 61.3207 7.59439Z" fill="#212121"/>
<path d="M65.3368 10.7961H69.0074V13.3031C69.4119 12.4775 70.0489 11.8029 70.9185 11.2794C71.8084 10.7357 72.8802 10.4639 74.1341 10.4639C75.8126 10.4639 77.1373 10.9773 78.108 12.0043C79.0787 13.0111 79.5641 14.5617 79.5641 16.6559V26.5933H75.8935V16.9881C75.8935 15.7799 75.6407 14.904 75.1351 14.3603C74.6295 13.7965 73.8307 13.5146 72.7386 13.5146C71.6466 13.5146 70.7466 13.8468 70.0388 14.5113C69.3512 15.1557 69.0074 16.082 69.0074 17.2902V26.5933H65.3368V10.7961Z" fill="#212121"/>
<path d="M83.0922 10.7961H86.7628V26.5933H83.0922V10.7961ZM86.4291 7.59439C86.0044 7.99712 85.4887 8.19849 84.882 8.19849C84.2753 8.19849 83.7596 7.99712 83.3349 7.59439C82.9102 7.19166 82.6979 6.69831 82.6979 6.11435C82.6979 5.51025 82.9102 5.00683 83.3349 4.6041C83.7596 4.20137 84.2753 4 84.882 4C85.4887 4 86.0044 4.20137 86.4291 4.6041C86.8538 5.00683 87.0661 5.51025 87.0661 6.11435C87.0661 6.69831 86.8538 7.19166 86.4291 7.59439Z" fill="#212121"/>
<path d="M102.767 4.99676H108.045L115.205 26.5933H111.018L109.289 21.247H101.008L99.3088 26.5933H95.5169L102.767 4.99676ZM101.948 18.3172H108.349L105.164 8.2891L101.948 18.3172Z" fill="#212121"/>
<path d="M117.42 10.7961H121.09V13.3333C121.556 12.5279 122.253 11.8533 123.184 11.3096C124.134 10.7458 125.166 10.4639 126.278 10.4639C128.32 10.4639 129.999 11.1888 131.313 12.6386C132.648 14.0683 133.316 16.0216 133.316 18.4984V18.74C133.316 21.237 132.658 23.2204 131.344 24.6904C130.05 26.1604 128.361 26.8954 126.278 26.8954C125.064 26.8954 124.003 26.6437 123.093 26.1402C122.203 25.6167 121.535 24.9421 121.09 24.1165V32H117.42V10.7961ZM125.368 23.9957C126.723 23.9957 127.754 23.5527 128.462 22.6667C129.19 21.7807 129.554 20.4919 129.554 18.8004V18.5588C129.554 16.8673 129.16 15.5786 128.371 14.6926C127.602 13.7864 126.591 13.3333 125.337 13.3333C124.003 13.3333 122.941 13.7763 122.152 14.6624C121.364 15.5484 120.969 16.8472 120.969 18.5588V18.8004C120.969 20.512 121.353 21.8109 122.122 22.6969C122.911 23.5627 123.993 23.9957 125.368 23.9957Z" fill="#212121"/>
<path d="M135.825 10.7961H139.495V13.3333C139.961 12.5279 140.658 11.8533 141.589 11.3096C142.539 10.7458 143.571 10.4639 144.683 10.4639C146.725 10.4639 148.404 11.1888 149.718 12.6386C151.053 14.0683 151.721 16.0216 151.721 18.4984V18.74C151.721 21.237 151.063 23.2204 149.749 24.6904C148.455 26.1604 146.766 26.8954 144.683 26.8954C143.469 26.8954 142.408 26.6437 141.498 26.1402C140.608 25.6167 139.94 24.9421 139.495 24.1165V32H135.825V10.7961ZM143.773 23.9957C145.128 23.9957 146.159 23.5527 146.867 22.6667C147.595 21.7807 147.959 20.4919 147.959 18.8004V18.5588C147.959 16.8673 147.565 15.5786 146.776 14.6926C146.007 13.7864 144.996 13.3333 143.742 13.3333C142.408 13.3333 141.346 13.7763 140.557 14.6624C139.769 15.5484 139.374 16.8472 139.374 18.5588V18.8004C139.374 20.512 139.758 21.8109 140.527 22.6969C141.316 23.5627 142.398 23.9957 143.773 23.9957Z" fill="#212121"/>
<path d="M159.66 26.8954C157.597 26.8954 155.989 26.4524 154.837 25.5663C153.704 24.6602 153.097 23.3614 153.016 21.6699H156.475C156.596 22.5156 156.889 23.1499 157.354 23.5728C157.82 23.9957 158.578 24.2071 159.63 24.2071C161.531 24.2071 162.481 23.5325 162.481 22.1834C162.481 21.5592 162.218 21.096 161.692 20.794C161.187 20.4718 160.317 20.21 159.084 20.0086C156.96 19.6864 155.474 19.173 154.624 18.4682C153.775 17.7634 153.35 16.676 153.35 15.206C153.35 13.7159 153.937 12.5581 155.11 11.7325C156.303 10.8867 157.698 10.4639 159.296 10.4639C163.098 10.4639 165.171 12.0547 165.515 15.2362H162.117C161.955 14.4912 161.652 13.9576 161.207 13.6354C160.762 13.2931 160.125 13.1219 159.296 13.1219C158.507 13.1219 157.89 13.2931 157.445 13.6354C157.001 13.9777 156.778 14.4308 156.778 14.9946C156.778 15.5786 157.001 16.0115 157.445 16.2934C157.911 16.5753 158.78 16.817 160.054 17.0183C162.117 17.3405 163.624 17.8339 164.574 18.4984C165.525 19.1629 166 20.2805 166 21.8511C166 23.4621 165.454 24.7105 164.362 25.5965C163.27 26.4624 161.702 26.8954 159.66 26.8954Z" fill="#212121"/>
</svg>
