<svg width="116" height="24" viewBox="0 0 116 24" fill="none" xmlns="http://www.w3.org/2000/svg">
<path d="M24 4.71197H27.7072L31.6228 15.2406L35.455 4.71197H39.1206V20.1381H36.3505V8.48759L31.9143 20.1381H31.0188L26.4993 8.48759V20.1381H24V4.71197Z" fill="#212121"/>
<path d="M41.8397 8.85437H44.3597V20.1381H41.8397V8.85437ZM44.1306 6.56742C43.8391 6.85509 43.485 6.99892 43.0685 6.99892C42.6519 6.99892 42.2978 6.85509 42.0063 6.56742C41.7147 6.27976 41.5689 5.92736 41.5689 5.51025C41.5689 5.07875 41.7147 4.71917 42.0063 4.4315C42.2978 4.14383 42.6519 4 43.0685 4C43.485 4 43.8391 4.14383 44.1306 4.4315C44.4222 4.71917 44.568 5.07875 44.568 5.51025C44.568 5.92736 44.4222 6.27976 44.1306 6.56742Z" fill="#212121"/>
<path d="M46.888 8.85437H49.4081V10.6451C49.6858 10.0554 50.1231 9.57353 50.7202 9.19957C51.3311 8.81122 52.067 8.61704 52.9279 8.61704C54.0803 8.61704 54.9898 8.98382 55.6562 9.71737C56.3227 10.4365 56.6559 11.544 56.6559 13.0399V20.1381H54.1358V13.2772C54.1358 12.4142 53.9623 11.7886 53.6152 11.4002C53.268 10.9975 52.7196 10.7961 51.9698 10.7961C51.22 10.7961 50.6022 11.0334 50.1162 11.5081C49.6441 11.9684 49.4081 12.63 49.4081 13.493V20.1381H46.888V8.85437Z" fill="#212121"/>
<path d="M59.0782 8.85437H61.5983V20.1381H59.0782V8.85437ZM61.3692 6.56742C61.0777 6.85509 60.7236 6.99892 60.307 6.99892C59.8905 6.99892 59.5364 6.85509 59.2449 6.56742C58.9533 6.27976 58.8075 5.92736 58.8075 5.51025C58.8075 5.07875 58.9533 4.71917 59.2449 4.4315C59.5364 4.14383 59.8905 4 60.307 4C60.7236 4 61.0777 4.14383 61.3692 4.4315C61.6608 4.71917 61.8066 5.07875 61.8066 5.51025C61.8066 5.92736 61.6608 6.27976 61.3692 6.56742Z" fill="#212121"/>
<path d="M72.5863 4.71197H76.2103L81.1255 20.1381H78.2513L77.0642 16.3193H71.3783L70.212 20.1381H67.6086L72.5863 4.71197ZM72.024 14.2265H76.4185L74.2317 7.06365L72.024 14.2265Z" fill="#212121"/>
<path d="M82.6465 8.85437H85.1666V10.6667C85.486 10.0913 85.965 9.60949 86.6037 9.22114C87.2563 8.81841 87.9644 8.61704 88.7281 8.61704C90.1304 8.61704 91.2829 9.13484 92.1854 10.1704C93.1018 11.1917 93.56 12.5868 93.56 14.356V14.5286C93.56 16.3121 93.1087 17.7289 92.2062 18.7789C91.3176 19.8288 90.1582 20.3538 88.7281 20.3538C87.895 20.3538 87.166 20.174 86.5412 19.8145C85.9303 19.4405 85.4721 18.9586 85.1666 18.3689V24H82.6465V8.85437ZM88.1032 18.2826C89.0335 18.2826 89.7417 17.9662 90.2276 17.3333C90.7275 16.7005 90.9774 15.7799 90.9774 14.5717V14.3991C90.9774 13.1909 90.7066 12.2704 90.1651 11.6375C89.6375 10.9903 88.9433 10.6667 88.0824 10.6667C87.166 10.6667 86.4371 10.9831 85.8956 11.616C85.3541 12.2488 85.0833 13.1766 85.0833 14.3991V14.5717C85.0833 15.7943 85.3471 16.722 85.8747 17.3549C86.4162 17.9734 87.1591 18.2826 88.1032 18.2826Z" fill="#212121"/>
<path d="M95.2828 8.85437H97.8029V10.6667C98.1222 10.0913 98.6012 9.60949 99.24 9.22114C99.8925 8.81841 100.601 8.61704 101.364 8.61704C102.767 8.61704 103.919 9.13484 104.822 10.1704C105.738 11.1917 106.196 12.5868 106.196 14.356V14.5286C106.196 16.3121 105.745 17.7289 104.842 18.7789C103.954 19.8288 102.794 20.3538 101.364 20.3538C100.531 20.3538 99.8023 20.174 99.1775 19.8145C98.5665 19.4405 98.1083 18.9586 97.8029 18.3689V24H95.2828V8.85437ZM100.74 18.2826C101.67 18.2826 102.378 17.9662 102.864 17.3333C103.364 16.7005 103.614 15.7799 103.614 14.5717V14.3991C103.614 13.1909 103.343 12.2704 102.801 11.6375C102.274 10.9903 101.58 10.6667 100.719 10.6667C99.8023 10.6667 99.0733 10.9831 98.5318 11.616C97.9903 12.2488 97.7196 13.1766 97.7196 14.3991V14.5717C97.7196 15.7943 97.9834 16.722 98.511 17.3549C99.0525 17.9734 99.7953 18.2826 100.74 18.2826Z" fill="#212121"/>
<path d="M111.647 20.3538C110.231 20.3538 109.127 20.0374 108.336 19.4045C107.558 18.7573 107.141 17.8296 107.086 16.6214H109.46C109.544 17.2255 109.745 17.6785 110.064 17.9806C110.384 18.2826 110.904 18.4337 111.626 18.4337C112.931 18.4337 113.584 17.9518 113.584 16.9881C113.584 16.5423 113.404 16.2114 113.043 15.9957C112.695 15.7656 112.098 15.5786 111.251 15.4347C109.793 15.2046 108.773 14.8378 108.19 14.3344C107.607 13.831 107.315 13.0543 107.315 12.0043C107.315 10.9399 107.718 10.1129 108.523 9.52319C109.342 8.91909 110.3 8.61704 111.397 8.61704C114.008 8.61704 115.431 9.75333 115.667 12.0259H113.334C113.223 11.4937 113.015 11.1125 112.709 10.8824C112.404 10.6379 111.966 10.5156 111.397 10.5156C110.856 10.5156 110.432 10.6379 110.127 10.8824C109.821 11.1269 109.669 11.4506 109.669 11.8533C109.669 12.2704 109.821 12.5796 110.127 12.781C110.446 12.9824 111.043 13.155 111.918 13.2988C113.334 13.5289 114.369 13.8813 115.021 14.356C115.674 14.8306 116 15.6289 116 16.7508C116 17.9015 115.625 18.7932 114.875 19.4261C114.126 20.0446 113.049 20.3538 111.647 20.3538Z" fill="#212121"/>
</svg>
